{
	"asset" : {
		"generator" : "FME 2024.0.0.0",
		"version" : "2.0"
	},
	"images" : [
		{
			"uri" : "B357421737102063A0_001.jpg"
		},
		{
			"uri" : "B357421737102063A0_002.jpg"
		},
		{
			"uri" : "B357421737102063A0_003.jpg"
		},
		{
			"uri" : "B357421737102063A0_004.jpg"
		},
		{
			"uri" : "B357421737102063A0_005.jpg"
		},
		{
			"uri" : "B357421737102063A0_006.jpg"
		},
		{
			"uri" : "B357421737102063A0_007.jpg"
		},
		{
			"uri" : "B357421737102063A0_008.jpg"
		},
		{
			"uri" : "B357421737102063A0_009.jpg"
		},
		{
			"uri" : "B357421737102063A0_010.jpg"
		},
		{
			"uri" : "B357421737102063A0_011.jpg"
		},
		{
			"uri" : "B357421737102063A0_012.jpg"
		},
		{
			"uri" : "B357421737102063A0_013.jpg"
		},
		{
			"uri" : "B357421737102063A0_014.jpg"
		},
		{
			"uri" : "B357421737102063A0_015.jpg"
		},
		{
			"uri" : "B357421737102063A0_016.jpg"
		}
	],
	"samplers" : [
		{
			"wrapS" : 10497,
			"wrapT" : 10497,
			"magFilter" : 9729,
			"minFilter" : 9986
		},
		{
			"wrapS" : 10497,
			"wrapT" : 10497,
			"magFilter" : 9729,
			"minFilter" : 9986
		},
		{
			"wrapS" : 10497,
			"wrapT" : 10497,
			"magFilter" : 9729,
			"minFilter" : 9986
		},
		{
			"wrapS" : 10497,
			"wrapT" : 10497,
			"magFilter" : 9729,
			"minFilter" : 9986
		},
		{
			"wrapS" : 10497,
			"wrapT" : 10497,
			"magFilter" : 9729,
			"minFilter" : 9986
		},
		{
			"wrapS" : 10497,
			"wrapT" : 10497,
			"magFilter" : 9729,
			"minFilter" : 9986
		},
		{
			"wrapS" : 10497,
			"wrapT" : 10497,
			"magFilter" : 9729,
			"minFilter" : 9986
		},
		{
			"wrapS" : 10497,
			"wrapT" : 10497,
			"magFilter" : 9729,
			"minFilter" : 9986
		},
		{
			"wrapS" : 10497,
			"wrapT" : 10497,
			"magFilter" : 9729,
			"minFilter" : 9986
		},
		{
			"wrapS" : 10497,
			"wrapT" : 10497,
			"magFilter" : 9729,
			"minFilter" : 9986
		},
		{
			"wrapS" : 10497,
			"wrapT" : 10497,
			"magFilter" : 9729,
			"minFilter" : 9986
		},
		{
			"wrapS" : 10497,
			"wrapT" : 10497,
			"magFilter" : 9729,
			"minFilter" : 9986
		},
		{
			"wrapS" : 10497,
			"wrapT" : 10497,
			"magFilter" : 9729,
			"minFilter" : 9986
		},
		{
			"wrapS" : 10497,
			"wrapT" : 10497,
			"magFilter" : 9729,
			"minFilter" : 9986
		},
		{
			"wrapS" : 10497,
			"wrapT" : 10497,
			"magFilter" : 9729,
			"minFilter" : 9986
		},
		{
			"wrapS" : 10497,
			"wrapT" : 10497,
			"magFilter" : 9729,
			"minFilter" : 9986
		}
	],
	"textures" : [
		{
			"source" : 0,
			"sampler" : 0
		},
		{
			"source" : 1,
			"sampler" : 1
		},
		{
			"source" : 2,
			"sampler" : 2
		},
		{
			"source" : 3,
			"sampler" : 3
		},
		{
			"source" : 4,
			"sampler" : 4
		},
		{
			"source" : 5,
			"sampler" : 5
		},
		{
			"source" : 6,
			"sampler" : 6
		},
		{
			"source" : 7,
			"sampler" : 7
		},
		{
			"source" : 8,
			"sampler" : 8
		},
		{
			"source" : 9,
			"sampler" : 9
		},
		{
			"source" : 10,
			"sampler" : 10
		},
		{
			"source" : 11,
			"sampler" : 11
		},
		{
			"source" : 12,
			"sampler" : 12
		},
		{
			"source" : 13,
			"sampler" : 13
		},
		{
			"source" : 14,
			"sampler" : 14
		},
		{
			"source" : 15,
			"sampler" : 15
		}
	],
	"materials" : [
		{
			"name" : "B357421737102063A0_001",
			"pbrMetallicRoughness" : {
				"baseColorTexture" : {
					"index" : 0,
					"texCoord" : 0
				},
				"roughnessFactor" : 0.984375,
				"metallicFactor" : 0.5
			}
		},
		{
			"name" : "B357421737102063A0_002",
			"pbrMetallicRoughness" : {
				"baseColorTexture" : {
					"index" : 1,
					"texCoord" : 0
				},
				"roughnessFactor" : 0.984375,
				"metallicFactor" : 0.5
			}
		},
		{
			"name" : "B357421737102063A0_003",
			"pbrMetallicRoughness" : {
				"baseColorTexture" : {
					"index" : 2,
					"texCoord" : 0
				},
				"roughnessFactor" : 0.984375,
				"metallicFactor" : 0.5
			}
		},
		{
			"name" : "B357421737102063A0_004",
			"pbrMetallicRoughness" : {
				"baseColorTexture" : {
					"index" : 3,
					"texCoord" : 0
				},
				"roughnessFactor" : 0.984375,
				"metallicFactor" : 0.5
			}
		},
		{
			"name" : "B357421737102063A0_005",
			"pbrMetallicRoughness" : {
				"baseColorTexture" : {
					"index" : 4,
					"texCoord" : 0
				},
				"roughnessFactor" : 0.984375,
				"metallicFactor" : 0.5
			}
		},
		{
			"name" : "B357421737102063A0_006",
			"pbrMetallicRoughness" : {
				"baseColorTexture" : {
					"index" : 5,
					"texCoord" : 0
				},
				"roughnessFactor" : 0.984375,
				"metallicFactor" : 0.5
			}
		},
		{
			"name" : "B357421737102063A0_007",
			"pbrMetallicRoughness" : {
				"baseColorTexture" : {
					"index" : 6,
					"texCoord" : 0
				},
				"roughnessFactor" : 0.984375,
				"metallicFactor" : 0.5
			}
		},
		{
			"name" : "B357421737102063A0_008",
			"pbrMetallicRoughness" : {
				"baseColorTexture" : {
					"index" : 7,
					"texCoord" : 0
				},
				"roughnessFactor" : 0.984375,
				"metallicFactor" : 0.5
			}
		},
		{
			"name" : "B357421737102063A0_009",
			"pbrMetallicRoughness" : {
				"baseColorTexture" : {
					"index" : 8,
					"texCoord" : 0
				},
				"roughnessFactor" : 0.984375,
				"metallicFactor" : 0.5
			}
		},
		{
			"name" : "B357421737102063A0_010",
			"pbrMetallicRoughness" : {
				"baseColorTexture" : {
					"index" : 9,
					"texCoord" : 0
				},
				"roughnessFactor" : 0.984375,
				"metallicFactor" : 0.5
			}
		},
		{
			"name" : "B357421737102063A0_011",
			"pbrMetallicRoughness" : {
				"baseColorTexture" : {
					"index" : 10,
					"texCoord" : 0
				},
				"roughnessFactor" : 0.984375,
				"metallicFactor" : 0.5
			}
		},
		{
			"name" : "B357421737102063A0_012",
			"pbrMetallicRoughness" : {
				"baseColorTexture" : {
					"index" : 11,
					"texCoord" : 0
				},
				"roughnessFactor" : 0.984375,
				"metallicFactor" : 0.5
			}
		},
		{
			"name" : "B357421737102063A0_013",
			"pbrMetallicRoughness" : {
				"baseColorTexture" : {
					"index" : 12,
					"texCoord" : 0
				},
				"roughnessFactor" : 0.984375,
				"metallicFactor" : 0.5
			}
		},
		{
			"name" : "B357421737102063A0_014",
			"pbrMetallicRoughness" : {
				"baseColorTexture" : {
					"index" : 13,
					"texCoord" : 0
				},
				"roughnessFactor" : 0.984375,
				"metallicFactor" : 0.5
			}
		},
		{
			"name" : "B357421737102063A0_015",
			"pbrMetallicRoughness" : {
				"baseColorTexture" : {
					"index" : 14,
					"texCoord" : 0
				},
				"roughnessFactor" : 0.984375,
				"metallicFactor" : 0.5
			}
		},
		{
			"name" : "B357421737102063A0_016",
			"pbrMetallicRoughness" : {
				"baseColorTexture" : {
					"index" : 15,
					"texCoord" : 0
				},
				"roughnessFactor" : 0.984375,
				"metallicFactor" : 0.5
			}
		}
	],
	"meshes" : [
		{
			"primitives" : [
				{
					"attributes" : {
						"NORMAL" : 1,
						"POSITION" : 0,
						"TEXCOORD_0" : 2
					},
					"indices" : 3,
					"material" : 0,
					"mode" : 4
				},
				{
					"attributes" : {
						"NORMAL" : 5,
						"POSITION" : 4,
						"TEXCOORD_0" : 6
					},
					"indices" : 7,
					"material" : 1,
					"mode" : 4
				},
				{
					"attributes" : {
						"NORMAL" : 9,
						"POSITION" : 8,
						"TEXCOORD_0" : 10
					},
					"indices" : 11,
					"material" : 2,
					"mode" : 4
				},
				{
					"attributes" : {
						"NORMAL" : 13,
						"POSITION" : 12,
						"TEXCOORD_0" : 14
					},
					"indices" : 15,
					"material" : 3,
					"mode" : 4
				},
				{
					"attributes" : {
						"NORMAL" : 17,
						"POSITION" : 16,
						"TEXCOORD_0" : 18
					},
					"indices" : 19,
					"material" : 4,
					"mode" : 4
				},
				{
					"attributes" : {
						"NORMAL" : 21,
						"POSITION" : 20,
						"TEXCOORD_0" : 22
					},
					"indices" : 23,
					"material" : 5,
					"mode" : 4
				},
				{
					"attributes" : {
						"NORMAL" : 25,
						"POSITION" : 24,
						"TEXCOORD_0" : 26
					},
					"indices" : 27,
					"material" : 6,
					"mode" : 4
				},
				{
					"attributes" : {
						"NORMAL" : 29,
						"POSITION" : 28,
						"TEXCOORD_0" : 30
					},
					"indices" : 31,
					"material" : 7,
					"mode" : 4
				},
				{
					"attributes" : {
						"NORMAL" : 33,
						"POSITION" : 32,
						"TEXCOORD_0" : 34
					},
					"indices" : 35,
					"material" : 8,
					"mode" : 4
				},
				{
					"attributes" : {
						"NORMAL" : 37,
						"POSITION" : 36,
						"TEXCOORD_0" : 38
					},
					"indices" : 39,
					"material" : 9,
					"mode" : 4
				},
				{
					"attributes" : {
						"NORMAL" : 41,
						"POSITION" : 40,
						"TEXCOORD_0" : 42
					},
					"indices" : 43,
					"material" : 10,
					"mode" : 4
				},
				{
					"attributes" : {
						"NORMAL" : 45,
						"POSITION" : 44,
						"TEXCOORD_0" : 46
					},
					"indices" : 47,
					"material" : 11,
					"mode" : 4
				},
				{
					"attributes" : {
						"NORMAL" : 49,
						"POSITION" : 48,
						"TEXCOORD_0" : 50
					},
					"indices" : 51,
					"material" : 12,
					"mode" : 4
				},
				{
					"attributes" : {
						"NORMAL" : 53,
						"POSITION" : 52,
						"TEXCOORD_0" : 54
					},
					"indices" : 55,
					"material" : 13,
					"mode" : 4
				},
				{
					"attributes" : {
						"NORMAL" : 57,
						"POSITION" : 56,
						"TEXCOORD_0" : 58
					},
					"indices" : 59,
					"material" : 14,
					"mode" : 4
				},
				{
					"attributes" : {
						"NORMAL" : 61,
						"POSITION" : 60,
						"TEXCOORD_0" : 62
					},
					"indices" : 63,
					"material" : 15,
					"mode" : 4
				}
			]
		}
	],
	"nodes" : [
		{
			"name" : "B357421737102063A0",
			"matrix" : [ 1, 0, 0, 0, 0, 0, -1, 0, 0, 1, 0, 0, 835742.8125, 3.573899984359741, -817362.6875, 1 ],
			"children" : [ 1 ]
		},
		{
			"mesh" : 0
		}
	],
	"scenes" : [
		{
			"nodes" : [ 0 ]
		}
	],
	"scene" : 0,
	"accessors" : [
		{
			"bufferView" : 0,
			"byteOffset" : 0,
			"componentType" : 5126,
			"count" : 12048,
			"type" : "VEC3",
			"min" : [ -45.779296875, -38.830078125, 0.3806002140045166 ],
			"max" : [ 45.779296875, 38.830078125, 45.42380142211914 ]
		},
		{
			"bufferView" : 1,
			"byteOffset" : 0,
			"componentType" : 5126,
			"count" : 12048,
			"type" : "VEC3",
			"min" : [ -1, -1, -1 ],
			"max" : [ 1, 1, 1 ]
		},
		{
			"bufferView" : 2,
			"byteOffset" : 0,
			"componentType" : 5126,
			"count" : 12048,
			"type" : "VEC2",
			"min" : [ 0.001953125, 0.0019559860229492188 ],
			"max" : [ 0.9980406761169434, 0.9951419830322266 ]
		},
		{
			"bufferView" : 3,
			"byteOffset" : 0,
			"componentType" : 5123,
			"count" : 12048,
			"type" : "SCALAR",
			"min" : [ 0 ],
			"max" : [ 12047 ]
		},
		{
			"bufferView" : 4,
			"byteOffset" : 0,
			"componentType" : 5126,
			"count" : 3615,
			"type" : "VEC3",
			"min" : [ -44.1533203125, -37.1494140625, 0 ],
			"max" : [ 43.857421875, 38.830078125, 45.266300201416016 ]
		},
		{
			"bufferView" : 5,
			"byteOffset" : 0,
			"componentType" : 5126,
			"count" : 3615,
			"type" : "VEC3",
			"min" : [ -0.9991454482078552, -0.9999266862869263, -1 ],
			"max" : [ 1, 0.9999958276748657, 1 ]
		},
		{
			"bufferView" : 6,
			"byteOffset" : 0,
			"componentType" : 5126,
			"count" : 3615,
			"type" : "VEC2",
			"min" : [ 0.001953125, 0.001953125 ],
			"max" : [ 0.9980463981628418, 0.982325553894043 ]
		},
		{
			"bufferView" : 7,
			"byteOffset" : 0,
			"componentType" : 5123,
			"count" : 3615,
			"type" : "SCALAR",
			"min" : [ 0 ],
			"max" : [ 3614 ]
		},
		{
			"bufferView" : 8,
			"byteOffset" : 0,
			"componentType" : 5126,
			"count" : 2790,
			"type" : "VEC3",
			"min" : [ -38.052734375, -33.349609375, 0.13970017433166504 ],
			"max" : [ 41.9873046875, 36.8154296875, 45.42380142211914 ]
		},
		{
			"bufferView" : 9,
			"byteOffset" : 0,
			"componentType" : 5126,
			"count" : 2790,
			"type" : "VEC3",
			"min" : [ -0.9999998807907104, -0.9999858140945435, -1 ],
			"max" : [ 1, 1, 1 ]
		},
		{
			"bufferView" : 10,
			"byteOffset" : 0,
			"componentType" : 5126,
			"count" : 2790,
			"type" : "VEC2",
			"min" : [ 0.001953125, 0.001953125 ],
			"max" : [ 0.9973688125610352, 0.953153133392334 ]
		},
		{
			"bufferView" : 11,
			"byteOffset" : 0,
			"componentType" : 5123,
			"count" : 2790,
			"type" : "SCALAR",
			"min" : [ 0 ],
			"max" : [ 2789 ]
		},
		{
			"bufferView" : 12,
			"byteOffset" : 0,
			"componentType" : 5126,
			"count" : 4812,
			"type" : "VEC3",
			"min" : [ -44.1533203125, -35.1904296875, 0 ],
			"max" : [ 43.857421875, 38.82421875, 45.42380142211914 ]
		},
		{
			"bufferView" : 13,
			"byteOffset" : 0,
			"componentType" : 5126,
			"count" : 4812,
			"type" : "VEC3",
			"min" : [ -1, -0.9999959468841553, -0.1086670458316803 ],
			"max" : [ 1, 0.9975796937942505, 1 ]
		},
		{
			"bufferView" : 14,
			"byteOffset" : 0,
			"componentType" : 5126,
			"count" : 4812,
			"type" : "VEC2",
			"min" : [ 0.001953125, 0.002002716064453125 ],
			"max" : [ 0.9977564811706543, 0.9853515625 ]
		},
		{
			"bufferView" : 15,
			"byteOffset" : 0,
			"componentType" : 5123,
			"count" : 4812,
			"type" : "SCALAR",
			"min" : [ 0 ],
			"max" : [ 4811 ]
		},
		{
			"bufferView" : 16,
			"byteOffset" : 0,
			"componentType" : 5126,
			"count" : 2877,
			"type" : "VEC3",
			"min" : [ -45.5625, -38.830078125, 0 ],
			"max" : [ 43.849609375, 36.8154296875, 45.266300201416016 ]
		},
		{
			"bufferView" : 17,
			"byteOffset" : 0,
			"componentType" : 5126,
			"count" : 2877,
			"type" : "VEC3",
			"min" : [ -1, -1, -1 ],
			"max" : [ 1, 0.9988518953323364, 1 ]
		},
		{
			"bufferView" : 18,
			"byteOffset" : 0,
			"componentType" : 5126,
			"count" : 2877,
			"type" : "VEC2",
			"min" : [ 0.0023741722106933594, 0.0020799636840820312 ],
			"max" : [ 0.9956045150756836, 0.9514179229736328 ]
		},
		{
			"bufferView" : 19,
			"byteOffset" : 0,
			"componentType" : 5123,
			"count" : 2877,
			"type" : "SCALAR",
			"min" : [ 0 ],
			"max" : [ 2876 ]
		},
		{
			"bufferView" : 20,
			"byteOffset" : 0,
			"componentType" : 5126,
			"count" : 2019,
			"type" : "VEC3",
			"min" : [ -43.8896484375, -35.0146484375, 0.04476809501647949 ],
			"max" : [ 43.84765625, 36.8134765625, 41.66630172729492 ]
		},
		{
			"bufferView" : 21,
			"byteOffset" : 0,
			"componentType" : 5126,
			"count" : 2019,
			"type" : "VEC3",
			"min" : [ -1, -0.9999971985816956, -1 ],
			"max" : [ 1, 0.9999991655349731, 1 ]
		},
		{
			"bufferView" : 22,
			"byteOffset" : 0,
			"componentType" : 5126,
			"count" : 2019,
			"type" : "VEC2",
			"min" : [ 0.0021195411682128906, 0.0020356178283691406 ],
			"max" : [ 0.9520490169525146, 0.9637060165405273 ]
		},
		{
			"bufferView" : 23,
			"byteOffset" : 0,
			"componentType" : 5123,
			"count" : 2019,
			"type" : "SCALAR",
			"min" : [ 0 ],
			"max" : [ 2018 ]
		},
		{
			"bufferView" : 24,
			"byteOffset" : 0,
			"componentType" : 5126,
			"count" : 1761,
			"type" : "VEC3",
			"min" : [ -45.7578125, -36.9619140625, 7.869754791259766 ],
			"max" : [ 45.779296875, 38.830078125, 37.97630310058594 ]
		},
		{
			"bufferView" : 25,
			"byteOffset" : 0,
			"componentType" : 5126,
			"count" : 1761,
			"type" : "VEC3",
			"min" : [ -0.16167791187763214, -0.9967371225357056, -0.9999983906745911 ],
			"max" : [ 0.18727026879787445, 0.9966859817504883, 1 ]
		},
		{
			"bufferView" : 26,
			"byteOffset" : 0,
			"componentType" : 5126,
			"count" : 1761,
			"type" : "VEC2",
			"min" : [ 0.0023021697998046875, 0.0021123886108398438 ],
			"max" : [ 0.9878764152526855, 0.9073038101196289 ]
		},
		{
			"bufferView" : 27,
			"byteOffset" : 0,
			"componentType" : 5123,
			"count" : 1761,
			"type" : "SCALAR",
			"min" : [ 0 ],
			"max" : [ 1760 ]
		},
		{
			"bufferView" : 28,
			"byteOffset" : 0,
			"componentType" : 5126,
			"count" : 1338,
			"type" : "VEC3",
			"min" : [ -45.76953125, -36.9521484375, 12.856500625610352 ],
			"max" : [ 45.7685546875, 38.82421875, 38.426300048828125 ]
		},
		{
			"bufferView" : 29,
			"byteOffset" : 0,
			"componentType" : 5126,
			"count" : 1338,
			"type" : "VEC3",
			"min" : [ -0.9966916441917419, -0.9964649081230164, -0.00039916703826747835 ],
			"max" : [ 0.5489680767059326, 0.17634336650371552, 1 ]
		},
		{
			"bufferView" : 30,
			"byteOffset" : 0,
			"componentType" : 5126,
			"count" : 1338,
			"type" : "VEC2",
			"min" : [ 0.0021924972534179688, 0.0020513534545898438 ],
			"max" : [ 0.996917724609375, 0.9091429710388184 ]
		},
		{
			"bufferView" : 31,
			"byteOffset" : 0,
			"componentType" : 5123,
			"count" : 1338,
			"type" : "SCALAR",
			"min" : [ 0 ],
			"max" : [ 1337 ]
		},
		{
			"bufferView" : 32,
			"byteOffset" : 0,
			"componentType" : 5126,
			"count" : 1167,
			"type" : "VEC3",
			"min" : [ -16.619140625, -13.669921875, 0.3614366054534912 ],
			"max" : [ 39.0009765625, 37.3134765625, 11.966300010681152 ]
		},
		{
			"bufferView" : 33,
			"byteOffset" : 0,
			"componentType" : 5126,
			"count" : 1167,
			"type" : "VEC3",
			"min" : [ -0.1206292137503624, -0.9977850317955017, -1 ],
			"max" : [ 0.09947790950536728, 1, 1 ]
		},
		{
			"bufferView" : 34,
			"byteOffset" : 0,
			"componentType" : 5126,
			"count" : 1167,
			"type" : "VEC2",
			"min" : [ 0.0020198822021484375, 0.002239227294921875 ],
			"max" : [ 0.9450650215148926, 0.8078017234802246 ]
		},
		{
			"bufferView" : 35,
			"byteOffset" : 0,
			"componentType" : 5123,
			"count" : 1167,
			"type" : "SCALAR",
			"min" : [ 0 ],
			"max" : [ 1166 ]
		},
		{
			"bufferView" : 36,
			"byteOffset" : 0,
			"componentType" : 5126,
			"count" : 921,
			"type" : "VEC3",
			"min" : [ -44.341796875, -35.2890625, 0.4237792491912842 ],
			"max" : [ 44.03125, 32.6650390625, 38.02130126953125 ]
		},
		{
			"bufferView" : 37,
			"byteOffset" : 0,
			"componentType" : 5126,
			"count" : 921,
			"type" : "VEC3",
			"min" : [ -0.9968755841255188, -0.8320503234863281, -1 ],
			"max" : [ 0.9968353509902954, 1, 1 ]
		},
		{
			"bufferView" : 38,
			"byteOffset" : 0,
			"componentType" : 5126,
			"count" : 921,
			"type" : "VEC2",
			"min" : [ 0.0020651817321777344, 0.0020771026611328125 ],
			"max" : [ 0.9151096343994141, 0.9481768608093262 ]
		},
		{
			"bufferView" : 39,
			"byteOffset" : 0,
			"componentType" : 5123,
			"count" : 921,
			"type" : "SCALAR",
			"min" : [ 0 ],
			"max" : [ 920 ]
		},
		{
			"bufferView" : 40,
			"byteOffset" : 0,
			"componentType" : 5126,
			"count" : 1284,
			"type" : "VEC3",
			"min" : [ -45.779296875, -36.6884765625, 0.30850791931152344 ],
			"max" : [ 45.7783203125, 38.2744140625, 38.426300048828125 ]
		},
		{
			"bufferView" : 41,
			"byteOffset" : 0,
			"componentType" : 5126,
			"count" : 1284,
			"type" : "VEC3",
			"min" : [ -0.999234139919281, -0.4793047308921814, -1 ],
			"max" : [ 0.9973598122596741, 1, 1 ]
		},
		{
			"bufferView" : 42,
			"byteOffset" : 0,
			"componentType" : 5126,
			"count" : 1284,
			"type" : "VEC2",
			"min" : [ 0.001953125, 0.001953125 ],
			"max" : [ 0.9764275550842285, 0.86083984375 ]
		},
		{
			"bufferView" : 43,
			"byteOffset" : 0,
			"componentType" : 5123,
			"count" : 1284,
			"type" : "SCALAR",
			"min" : [ 0 ],
			"max" : [ 1283 ]
		},
		{
			"bufferView" : 44,
			"byteOffset" : 0,
			"componentType" : 5126,
			"count" : 1401,
			"type" : "VEC3",
			"min" : [ -43.880859375, -34.9267578125, 14.762199401855469 ],
			"max" : [ 43.8388671875, 36.8046875, 40.9463005065918 ]
		},
		{
			"bufferView" : 45,
			"byteOffset" : 0,
			"componentType" : 5126,
			"count" : 1401,
			"type" : "VEC3",
			"min" : [ 0, -0.997282087802887, -0.004343072418123484 ],
			"max" : [ 0.12403678148984909, 0, 1 ]
		},
		{
			"bufferView" : 46,
			"byteOffset" : 0,
			"componentType" : 5126,
			"count" : 1401,
			"type" : "VEC2",
			"min" : [ 0.002368450164794922, 0.001953125 ],
			"max" : [ 0.9542751312255859, 0.8652610778808594 ]
		},
		{
			"bufferView" : 47,
			"byteOffset" : 0,
			"componentType" : 5123,
			"count" : 1401,
			"type" : "SCALAR",
			"min" : [ 0 ],
			"max" : [ 1400 ]
		},
		{
			"bufferView" : 48,
			"byteOffset" : 0,
			"componentType" : 5126,
			"count" : 1158,
			"type" : "VEC3",
			"min" : [ -43.8896484375, -34.9267578125, 8.35061264038086 ],
			"max" : [ 43.84765625, 36.8134765625, 38.02130126953125 ]
		},
		{
			"bufferView" : 49,
			"byteOffset" : 0,
			"componentType" : 5126,
			"count" : 1158,
			"type" : "VEC3",
			"min" : [ -1, -0.1611507385969162, -0.23175464570522308 ],
			"max" : [ 0.9999978542327881, 0.706829845905304, 0.09669268876314163 ]
		},
		{
			"bufferView" : 50,
			"byteOffset" : 0,
			"componentType" : 5126,
			"count" : 1158,
			"type" : "VEC2",
			"min" : [ 0.002109527587890625, 0.002109050750732422 ],
			"max" : [ 0.9304563999176025, 0.931617259979248 ]
		},
		{
			"bufferView" : 51,
			"byteOffset" : 0,
			"componentType" : 5123,
			"count" : 1158,
			"type" : "SCALAR",
			"min" : [ 0 ],
			"max" : [ 1157 ]
		},
		{
			"bufferView" : 52,
			"byteOffset" : 0,
			"componentType" : 5126,
			"count" : 3246,
			"type" : "VEC3",
			"min" : [ -43.4609375, -34.5, 37.796302795410156 ],
			"max" : [ 43.4453125, 36.39453125, 40.9463005065918 ]
		},
		{
			"bufferView" : 53,
			"byteOffset" : 0,
			"componentType" : 5126,
			"count" : 3246,
			"type" : "VEC3",
			"min" : [ -0.9966737031936646, -0.08175355941057205, 0.007078282535076141 ],
			"max" : [ 0.9967119693756104, 0.9966768026351929, 1 ]
		},
		{
			"bufferView" : 54,
			"byteOffset" : 0,
			"componentType" : 5126,
			"count" : 3246,
			"type" : "VEC2",
			"min" : [ 0.0020172595977783203, 0.0020575523376464844 ],
			"max" : [ 0.873039722442627, 0.8966717720031738 ]
		},
		{
			"bufferView" : 55,
			"byteOffset" : 0,
			"componentType" : 5123,
			"count" : 3246,
			"type" : "SCALAR",
			"min" : [ 0 ],
			"max" : [ 3245 ]
		},
		{
			"bufferView" : 56,
			"byteOffset" : 0,
			"componentType" : 5126,
			"count" : 2628,
			"type" : "VEC3",
			"min" : [ -43.431640625, -35.2890625, 7.869754791259766 ],
			"max" : [ 44.03125, 38.7802734375, 41.66630172729492 ]
		},
		{
			"bufferView" : 57,
			"byteOffset" : 0,
			"componentType" : 5126,
			"count" : 2628,
			"type" : "VEC3",
			"min" : [ -0.9968746900558472, -0.9967849850654602, -1 ],
			"max" : [ 0.9968386292457581, 0.9910440444946289, 1 ]
		},
		{
			"bufferView" : 58,
			"byteOffset" : 0,
			"componentType" : 5126,
			"count" : 2628,
			"type" : "VEC2",
			"min" : [ 0.0020589828491210938, 0.0019998550415039062 ],
			"max" : [ 0.9877619743347168, 0.8323211669921875 ]
		},
		{
			"bufferView" : 59,
			"byteOffset" : 0,
			"componentType" : 5123,
			"count" : 2628,
			"type" : "SCALAR",
			"min" : [ 0 ],
			"max" : [ 2627 ]
		},
		{
			"bufferView" : 60,
			"byteOffset" : 0,
			"componentType" : 5126,
			"count" : 2277,
			"type" : "VEC3",
			"min" : [ -43.8896484375, -33.330078125, 0.3508002758026123 ],
			"max" : [ 26.345703125, 35.375, 44.825355529785156 ]
		},
		{
			"bufferView" : 61,
			"byteOffset" : 0,
			"componentType" : 5126,
			"count" : 2277,
			"type" : "VEC3",
			"min" : [ -0.9992696642875671, -0.9967025518417358, -0.028650790452957153 ],
			"max" : [ 1, 1, 1 ]
		},
		{
			"bufferView" : 62,
			"byteOffset" : 0,
			"componentType" : 5126,
			"count" : 2277,
			"type" : "VEC2",
			"min" : [ 0.0019588470458984375, 0.001953125 ],
			"max" : [ 0.9921331405639648, 0.9649267196655273 ]
		},
		{
			"bufferView" : 63,
			"byteOffset" : 0,
			"componentType" : 5123,
			"count" : 2277,
			"type" : "SCALAR",
			"min" : [ 0 ],
			"max" : [ 2276 ]
		}
	],
	"bufferViews" : [
		{
			"buffer" : 0,
			"byteOffset" : 0,
			"byteLength" : 144576,
			"target" : 34962
		},
		{
			"buffer" : 0,
			"byteOffset" : 144576,
			"byteLength" : 144576,
			"target" : 34962
		},
		{
			"buffer" : 0,
			"byteOffset" : 289152,
			"byteLength" : 96384,
			"target" : 34962
		},
		{
			"buffer" : 0,
			"byteOffset" : 385536,
			"byteLength" : 24096,
			"target" : 34963
		},
		{
			"buffer" : 0,
			"byteOffset" : 409632,
			"byteLength" : 43380,
			"target" : 34962
		},
		{
			"buffer" : 0,
			"byteOffset" : 453012,
			"byteLength" : 43380,
			"target" : 34962
		},
		{
			"buffer" : 0,
			"byteOffset" : 496392,
			"byteLength" : 28920,
			"target" : 34962
		},
		{
			"buffer" : 0,
			"byteOffset" : 525312,
			"byteLength" : 7230,
			"target" : 34963
		},
		{
			"buffer" : 0,
			"byteOffset" : 532544,
			"byteLength" : 33480,
			"target" : 34962
		},
		{
			"buffer" : 0,
			"byteOffset" : 566024,
			"byteLength" : 33480,
			"target" : 34962
		},
		{
			"buffer" : 0,
			"byteOffset" : 599504,
			"byteLength" : 22320,
			"target" : 34962
		},
		{
			"buffer" : 0,
			"byteOffset" : 621824,
			"byteLength" : 5580,
			"target" : 34963
		},
		{
			"buffer" : 0,
			"byteOffset" : 627404,
			"byteLength" : 57744,
			"target" : 34962
		},
		{
			"buffer" : 0,
			"byteOffset" : 685148,
			"byteLength" : 57744,
			"target" : 34962
		},
		{
			"buffer" : 0,
			"byteOffset" : 742892,
			"byteLength" : 38496,
			"target" : 34962
		},
		{
			"buffer" : 0,
			"byteOffset" : 781388,
			"byteLength" : 9624,
			"target" : 34963
		},
		{
			"buffer" : 0,
			"byteOffset" : 791012,
			"byteLength" : 34524,
			"target" : 34962
		},
		{
			"buffer" : 0,
			"byteOffset" : 825536,
			"byteLength" : 34524,
			"target" : 34962
		},
		{
			"buffer" : 0,
			"byteOffset" : 860060,
			"byteLength" : 23016,
			"target" : 34962
		},
		{
			"buffer" : 0,
			"byteOffset" : 883076,
			"byteLength" : 5754,
			"target" : 34963
		},
		{
			"buffer" : 0,
			"byteOffset" : 888832,
			"byteLength" : 24228,
			"target" : 34962
		},
		{
			"buffer" : 0,
			"byteOffset" : 913060,
			"byteLength" : 24228,
			"target" : 34962
		},
		{
			"buffer" : 0,
			"byteOffset" : 937288,
			"byteLength" : 16152,
			"target" : 34962
		},
		{
			"buffer" : 0,
			"byteOffset" : 953440,
			"byteLength" : 4038,
			"target" : 34963
		},
		{
			"buffer" : 0,
			"byteOffset" : 957480,
			"byteLength" : 21132,
			"target" : 34962
		},
		{
			"buffer" : 0,
			"byteOffset" : 978612,
			"byteLength" : 21132,
			"target" : 34962
		},
		{
			"buffer" : 0,
			"byteOffset" : 999744,
			"byteLength" : 14088,
			"target" : 34962
		},
		{
			"buffer" : 0,
			"byteOffset" : 1013832,
			"byteLength" : 3522,
			"target" : 34963
		},
		{
			"buffer" : 0,
			"byteOffset" : 1017356,
			"byteLength" : 16056,
			"target" : 34962
		},
		{
			"buffer" : 0,
			"byteOffset" : 1033412,
			"byteLength" : 16056,
			"target" : 34962
		},
		{
			"buffer" : 0,
			"byteOffset" : 1049468,
			"byteLength" : 10704,
			"target" : 34962
		},
		{
			"buffer" : 0,
			"byteOffset" : 1060172,
			"byteLength" : 2676,
			"target" : 34963
		},
		{
			"buffer" : 0,
			"byteOffset" : 1062848,
			"byteLength" : 14004,
			"target" : 34962
		},
		{
			"buffer" : 0,
			"byteOffset" : 1076852,
			"byteLength" : 14004,
			"target" : 34962
		},
		{
			"buffer" : 0,
			"byteOffset" : 1090856,
			"byteLength" : 9336,
			"target" : 34962
		},
		{
			"buffer" : 0,
			"byteOffset" : 1100192,
			"byteLength" : 2334,
			"target" : 34963
		},
		{
			"buffer" : 0,
			"byteOffset" : 1102528,
			"byteLength" : 11052,
			"target" : 34962
		},
		{
			"buffer" : 0,
			"byteOffset" : 1113580,
			"byteLength" : 11052,
			"target" : 34962
		},
		{
			"buffer" : 0,
			"byteOffset" : 1124632,
			"byteLength" : 7368,
			"target" : 34962
		},
		{
			"buffer" : 0,
			"byteOffset" : 1132000,
			"byteLength" : 1842,
			"target" : 34963
		},
		{
			"buffer" : 0,
			"byteOffset" : 1133844,
			"byteLength" : 15408,
			"target" : 34962
		},
		{
			"buffer" : 0,
			"byteOffset" : 1149252,
			"byteLength" : 15408,
			"target" : 34962
		},
		{
			"buffer" : 0,
			"byteOffset" : 1164660,
			"byteLength" : 10272,
			"target" : 34962
		},
		{
			"buffer" : 0,
			"byteOffset" : 1174932,
			"byteLength" : 2568,
			"target" : 34963
		},
		{
			"buffer" : 0,
			"byteOffset" : 1177500,
			"byteLength" : 16812,
			"target" : 34962
		},
		{
			"buffer" : 0,
			"byteOffset" : 1194312,
			"byteLength" : 16812,
			"target" : 34962
		},
		{
			"buffer" : 0,
			"byteOffset" : 1211124,
			"byteLength" : 11208,
			"target" : 34962
		},
		{
			"buffer" : 0,
			"byteOffset" : 1222332,
			"byteLength" : 2802,
			"target" : 34963
		},
		{
			"buffer" : 0,
			"byteOffset" : 1225136,
			"byteLength" : 13896,
			"target" : 34962
		},
		{
			"buffer" : 0,
			"byteOffset" : 1239032,
			"byteLength" : 13896,
			"target" : 34962
		},
		{
			"buffer" : 0,
			"byteOffset" : 1252928,
			"byteLength" : 9264,
			"target" : 34962
		},
		{
			"buffer" : 0,
			"byteOffset" : 1262192,
			"byteLength" : 2316,
			"target" : 34963
		},
		{
			"buffer" : 0,
			"byteOffset" : 1264508,
			"byteLength" : 38952,
			"target" : 34962
		},
		{
			"buffer" : 0,
			"byteOffset" : 1303460,
			"byteLength" : 38952,
			"target" : 34962
		},
		{
			"buffer" : 0,
			"byteOffset" : 1342412,
			"byteLength" : 25968,
			"target" : 34962
		},
		{
			"buffer" : 0,
			"byteOffset" : 1368380,
			"byteLength" : 6492,
			"target" : 34963
		},
		{
			"buffer" : 0,
			"byteOffset" : 1374872,
			"byteLength" : 31536,
			"target" : 34962
		},
		{
			"buffer" : 0,
			"byteOffset" : 1406408,
			"byteLength" : 31536,
			"target" : 34962
		},
		{
			"buffer" : 0,
			"byteOffset" : 1437944,
			"byteLength" : 21024,
			"target" : 34962
		},
		{
			"buffer" : 0,
			"byteOffset" : 1458968,
			"byteLength" : 5256,
			"target" : 34963
		},
		{
			"buffer" : 0,
			"byteOffset" : 1464224,
			"byteLength" : 27324,
			"target" : 34962
		},
		{
			"buffer" : 0,
			"byteOffset" : 1491548,
			"byteLength" : 27324,
			"target" : 34962
		},
		{
			"buffer" : 0,
			"byteOffset" : 1518872,
			"byteLength" : 18216,
			"target" : 34962
		},
		{
			"buffer" : 0,
			"byteOffset" : 1537088,
			"byteLength" : 4554,
			"target" : 34963
		}
	],
	"buffers" : [
		{
			"uri" : "B357421737102063A0.bin",
			"byteLength" : 1541642
		}
	]
}