{
	"asset" : {
		"generator" : "FME 2024.0.0.0",
		"version" : "2.0"
	},
	"images" : [
		{
			"uri" : "B357411738401063A0_001.jpg"
		},
		{
			"uri" : "B357411738401063A0_002.jpg"
		},
		{
			"uri" : "B357411738401063A0_003.jpg"
		},
		{
			"uri" : "B357411738401063A0_004.jpg"
		}
	],
	"samplers" : [
		{
			"wrapS" : 10497,
			"wrapT" : 10497,
			"magFilter" : 9729,
			"minFilter" : 9986
		},
		{
			"wrapS" : 10497,
			"wrapT" : 10497,
			"magFilter" : 9729,
			"minFilter" : 9986
		},
		{
			"wrapS" : 10497,
			"wrapT" : 10497,
			"magFilter" : 9729,
			"minFilter" : 9986
		},
		{
			"wrapS" : 10497,
			"wrapT" : 10497,
			"magFilter" : 9729,
			"minFilter" : 9986
		}
	],
	"textures" : [
		{
			"source" : 0,
			"sampler" : 0
		},
		{
			"source" : 1,
			"sampler" : 1
		},
		{
			"source" : 2,
			"sampler" : 2
		},
		{
			"source" : 3,
			"sampler" : 3
		}
	],
	"materials" : [
		{
			"name" : "B357411738401063A0_001",
			"pbrMetallicRoughness" : {
				"baseColorTexture" : {
					"index" : 0,
					"texCoord" : 0
				},
				"roughnessFactor" : 0.984375,
				"metallicFactor" : 0.5
			}
		},
		{
			"name" : "B357411738401063A0_002",
			"pbrMetallicRoughness" : {
				"baseColorTexture" : {
					"index" : 1,
					"texCoord" : 0
				},
				"roughnessFactor" : 0.984375,
				"metallicFactor" : 0.5
			}
		},
		{
			"name" : "B357411738401063A0_003",
			"pbrMetallicRoughness" : {
				"baseColorTexture" : {
					"index" : 2,
					"texCoord" : 0
				},
				"roughnessFactor" : 0.984375,
				"metallicFactor" : 0.5
			}
		},
		{
			"name" : "B357411738401063A0_004",
			"pbrMetallicRoughness" : {
				"baseColorTexture" : {
					"index" : 3,
					"texCoord" : 0
				},
				"roughnessFactor" : 0.984375,
				"metallicFactor" : 0.5
			}
		}
	],
	"meshes" : [
		{
			"primitives" : [
				{
					"attributes" : {
						"NORMAL" : 1,
						"POSITION" : 0,
						"TEXCOORD_0" : 2
					},
					"indices" : 3,
					"material" : 0,
					"mode" : 4
				},
				{
					"attributes" : {
						"NORMAL" : 5,
						"POSITION" : 4,
						"TEXCOORD_0" : 6
					},
					"indices" : 7,
					"material" : 1,
					"mode" : 4
				},
				{
					"attributes" : {
						"NORMAL" : 9,
						"POSITION" : 8,
						"TEXCOORD_0" : 10
					},
					"indices" : 11,
					"material" : 2,
					"mode" : 4
				},
				{
					"attributes" : {
						"NORMAL" : 13,
						"POSITION" : 12,
						"TEXCOORD_0" : 14
					},
					"indices" : 15,
					"material" : 3,
					"mode" : 4
				}
			]
		}
	],
	"nodes" : [
		{
			"name" : "B357411738401063A0",
			"matrix" : [ 1, 0, 0, 0, 0, 0, -1, 0, 0, 1, 0, 0, 835741.125, 48.39924240112305, -817383.375, 1 ],
			"children" : [ 1 ]
		},
		{
			"mesh" : 0
		}
	],
	"scenes" : [
		{
			"nodes" : [ 0 ]
		}
	],
	"scene" : 0,
	"accessors" : [
		{
			"bufferView" : 0,
			"byteOffset" : 0,
			"componentType" : 5126,
			"count" : 4929,
			"type" : "VEC3",
			"min" : [ -30.4873046875, -14.5302734375, 0 ],
			"max" : [ 30.4052734375, 13.39453125, 73.6109619140625 ]
		},
		{
			"bufferView" : 1,
			"byteOffset" : 0,
			"componentType" : 5126,
			"count" : 4929,
			"type" : "VEC3",
			"min" : [ -0.998623251914978, -1, -1 ],
			"max" : [ 0.9986448287963867, 0.9999669790267944, 1 ]
		},
		{
			"bufferView" : 2,
			"byteOffset" : 0,
			"componentType" : 5126,
			"count" : 4929,
			"type" : "VEC2",
			"min" : [ 0.0019769668579101562, 0.0019741058349609375 ],
			"max" : [ 0.9980158805847168, 0.9918848276138306 ]
		},
		{
			"bufferView" : 3,
			"byteOffset" : 0,
			"componentType" : 5123,
			"count" : 4929,
			"type" : "SCALAR",
			"min" : [ 0 ],
			"max" : [ 4928 ]
		},
		{
			"bufferView" : 4,
			"byteOffset" : 0,
			"componentType" : 5126,
			"count" : 2172,
			"type" : "VEC3",
			"min" : [ -30.498046875, -15.39453125, 3.814697265625e-6 ],
			"max" : [ 30.416015625, 15.400390625, 73.6109619140625 ]
		},
		{
			"bufferView" : 5,
			"byteOffset" : 0,
			"componentType" : 5126,
			"count" : 2172,
			"type" : "VEC3",
			"min" : [ -0.998706042766571, -0.9977703094482422, -0.034104637801647186 ],
			"max" : [ 0.9968833327293396, 0.9970917701721191, 1 ]
		},
		{
			"bufferView" : 6,
			"byteOffset" : 0,
			"componentType" : 5126,
			"count" : 2172,
			"type" : "VEC2",
			"min" : [ 0.0019620656967163086, 0.001955866813659668 ],
			"max" : [ 0.9959772825241089, 0.9765914678573608 ]
		},
		{
			"bufferView" : 7,
			"byteOffset" : 0,
			"componentType" : 5123,
			"count" : 2172,
			"type" : "SCALAR",
			"min" : [ 0 ],
			"max" : [ 2171 ]
		},
		{
			"bufferView" : 8,
			"byteOffset" : 0,
			"componentType" : 5126,
			"count" : 1248,
			"type" : "VEC3",
			"min" : [ -27.52734375, -15.3828125, 2.8934593200683594 ],
			"max" : [ 27.6025390625, 15.3896484375, 71.69845581054688 ]
		},
		{
			"bufferView" : 9,
			"byteOffset" : 0,
			"componentType" : 5126,
			"count" : 1248,
			"type" : "VEC3",
			"min" : [ -0.9970024228096008, -0.9967290759086609, 0.0001716017723083496 ],
			"max" : [ 0.996573269367218, 0.9965236783027649, 1 ]
		},
		{
			"bufferView" : 10,
			"byteOffset" : 0,
			"componentType" : 5126,
			"count" : 1248,
			"type" : "VEC2",
			"min" : [ 0.0020455121994018555, 0.002256155014038086 ],
			"max" : [ 0.9928849935531616, 0.9408342838287354 ]
		},
		{
			"bufferView" : 11,
			"byteOffset" : 0,
			"componentType" : 5123,
			"count" : 1248,
			"type" : "SCALAR",
			"min" : [ 0 ],
			"max" : [ 1247 ]
		},
		{
			"bufferView" : 12,
			"byteOffset" : 0,
			"componentType" : 5126,
			"count" : 267,
			"type" : "VEC3",
			"min" : [ -26.134765625, -14.4599609375, 72.3509521484375 ],
			"max" : [ 0.0625, 11.43359375, 72.3509521484375 ]
		},
		{
			"bufferView" : 13,
			"byteOffset" : 0,
			"componentType" : 5126,
			"count" : 267,
			"type" : "VEC3",
			"min" : [ 0, 0, 0.9999999403953552 ],
			"max" : [ 0, 0, 1 ]
		},
		{
			"bufferView" : 14,
			"byteOffset" : 0,
			"componentType" : 5126,
			"count" : 267,
			"type" : "VEC2",
			"min" : [ 0.0023916959762573242, 0.002222299575805664 ],
			"max" : [ 0.2583543062210083, 0.25486063957214355 ]
		},
		{
			"bufferView" : 15,
			"byteOffset" : 0,
			"componentType" : 5123,
			"count" : 267,
			"type" : "SCALAR",
			"min" : [ 0 ],
			"max" : [ 266 ]
		}
	],
	"bufferViews" : [
		{
			"buffer" : 0,
			"byteOffset" : 0,
			"byteLength" : 59148,
			"target" : 34962
		},
		{
			"buffer" : 0,
			"byteOffset" : 59148,
			"byteLength" : 59148,
			"target" : 34962
		},
		{
			"buffer" : 0,
			"byteOffset" : 118296,
			"byteLength" : 39432,
			"target" : 34962
		},
		{
			"buffer" : 0,
			"byteOffset" : 157728,
			"byteLength" : 9858,
			"target" : 34963
		},
		{
			"buffer" : 0,
			"byteOffset" : 167588,
			"byteLength" : 26064,
			"target" : 34962
		},
		{
			"buffer" : 0,
			"byteOffset" : 193652,
			"byteLength" : 26064,
			"target" : 34962
		},
		{
			"buffer" : 0,
			"byteOffset" : 219716,
			"byteLength" : 17376,
			"target" : 34962
		},
		{
			"buffer" : 0,
			"byteOffset" : 237092,
			"byteLength" : 4344,
			"target" : 34963
		},
		{
			"buffer" : 0,
			"byteOffset" : 241436,
			"byteLength" : 14976,
			"target" : 34962
		},
		{
			"buffer" : 0,
			"byteOffset" : 256412,
			"byteLength" : 14976,
			"target" : 34962
		},
		{
			"buffer" : 0,
			"byteOffset" : 271388,
			"byteLength" : 9984,
			"target" : 34962
		},
		{
			"buffer" : 0,
			"byteOffset" : 281372,
			"byteLength" : 2496,
			"target" : 34963
		},
		{
			"buffer" : 0,
			"byteOffset" : 283868,
			"byteLength" : 3204,
			"target" : 34962
		},
		{
			"buffer" : 0,
			"byteOffset" : 287072,
			"byteLength" : 3204,
			"target" : 34962
		},
		{
			"buffer" : 0,
			"byteOffset" : 290276,
			"byteLength" : 2136,
			"target" : 34962
		},
		{
			"buffer" : 0,
			"byteOffset" : 292412,
			"byteLength" : 534,
			"target" : 34963
		}
	],
	"buffers" : [
		{
			"uri" : "B357411738401063A0.bin",
			"byteLength" : 292946
		}
	]
}